<svg viewBox="-1 0 180 34" xmlns="http://www.w3.org/2000/svg">
  <!-- Original Logo -->
  <g fill="black">
    <path d="M17 13L21 17L17 21L13 17L17 13Z" />
    <path d="M21.5 6L23.5 8L21.5 10L19.5 8L21.5 6Z" />
    <path d="M21.5 24L23.5 26L21.5 28L19.5 26L21.5 24Z" />
    <path d="M26 15L28 17L26 19L24 17L26 15Z" />
    <path d="M12.5 24L14.5 26L12.5 28L10.5 26L12.5 24Z" />
    <path d="M12.5 6L14.5 8L12.5 10L10.5 8L12.5 6Z" />
    <path d="M8 15L10 17L8 19L6 17L8 15Z" />
    <path d="M25 2L26 3L25 4L24 3L25 2Z" />
    <path d="M32 16L33 17L32 18L31 17L32 16Z" />
    <path d="M30.5 8L31.5 9L30.5 10L29.5 9L30.5 8Z" />
    <path d="M30.5 24L31.5 25L30.5 26L29.5 25L30.5 24Z" />
    <path d="M16 32L17 33L16 34L15 33L16 32Z" />
    <path d="M24.5 30L25.5 31L24.5 32L23.5 31L24.5 30Z" />
    <path d="M9.5 30L10.5 31L9.5 32L8.5 31L9.5 30Z" />
    <path d="M0 16L1 17L0 18L-1 17L0 16Z" />
    <path d="M2.5 24L3.5 25L2.5 26L1.5 25L2.5 24Z" />
    <path d="M2.5 8L3.5 9L2.5 10L1.5 9L2.5 8Z" />
    <path d="M16 0L17 1L16 2L15 1L16 0Z" />
    <path d="M8.5 2L9.5 3L8.5 4L7.5 3L8.5 2Z" />
  </g>

  <!-- Text "Cyberdesk" -->
  <text x="40" y="25" font-size="25.5" font-weight="bold" fill="black" font-family="Arial, sans-serif">
    Cyberdesk
  </text>
</svg>
